<svg xmlns="http://www.w3.org/2000/svg" viewBox="0 0 24 24" fill="currentColor"><path d="M12 14.9c-.32 0-.58.27-.58.6v3.85c0 .85.69 1.55 1.55 1.55.34 0 .67-.2.82-.53l.12-.3c.33-1.1.99-1.9 1.81-2.2V15.5c0-.33-.26-.6-.58-.6zM18 10v1.5h1.5V10c0-2.8-1.3-5.2-3.4-6.8l-.5.8c1.3.9 2.2 2.4 2.4 4zM6 10v1.5H4.5V10c0-2.8 1.3-5.2 3.4-6.8l-.5.8C6.8 5.8 6 7.3 6 10zm11.5 7.5c-.17 0-.33.07-.45.2l-1.4 1.4c-.3.3-.3.8 0 1.1s.8.3 1.1 0l1.4-1.4c.3-.3.3-.8 0-1.1-.2-.2-.38-.3-.6-.3zM12 3.5c-.92 0-1.73.31-2.4.85l-.75-.75C10.2 2.1 11.1 2 12 2c3.3 0 6 2.7 6 6v1h-1.5v-1c0-2.5-2-4.5-4.5-4.5z"/></svg>